<svg fill="none" height="512" viewBox="0 0 24 24" width="512" xmlns="http://www.w3.org/2000/svg"><g fill="rgb(0,0,0)"><path d="m9 3.75h5.5c.4142 0 .75.33579.75.75s-.3358.75-.75.75h-6.5c-.9665 0-1.75.7835-1.75 1.75s.7835 1.75 1.75 1.75h6c.4142 0 .75-.33579.75-.75s-.3358-.75-.75-.75h-6c-.13807 0-.25-.11193-.25-.25s.11193-.25.25-.25h6.5c1.2426 0 2.25-1.00736 2.25-2.25s-1.0074-2.25-2.25-2.25h-5.5c-.41421 0-.75.33579-.75.75s.33579.75.75.75z"/><path clip-rule="evenodd" d="m12.25 9.25h-6.69665c-.7403 0-1.31841.63979-1.2436 1.3763l1.11718 11c.06482.6382.60216 1.1237 1.24361 1.1237h9.26756c.6256 0 1.1548-.4624 1.2387-1.0823l.2845-2.1007c1.8534-.2273 3.2887-1.807 3.2887-3.7219 0-1.5639-.9569-2.9026-2.3154-3.4655l.2318-1.7119c.1016-.75013-.4817-1.4177-1.2387-1.4177h-3.6777v4.0961l1.4394 3.3585c.0993.2317.0755.4978-.0633.7083-.1388.2104-.374.3371-.6261.3371h-3c-.2521 0-.4873-.1267-.6261-.3371-.1388-.2105-.1626-.4766-.0633-.7083l1.4394-3.3585zm7 6.5951c0 1.0077-.6624 1.8606-1.5754 2.1472l.5467-4.0374c.6195.4012 1.0287 1.0985 1.0287 1.8902z" fill-rule="evenodd"/></g></svg>