<?xml version="1.0" encoding="iso-8859-1"?>
<!-- Generator: Adobe Illustrator 19.0.0, SVG Export Plug-In . SVG Version: 6.00 Build 0)  -->
<svg version="1.1" id="Capa_1" xmlns="http://www.w3.org/2000/svg" xmlns:xlink="http://www.w3.org/1999/xlink" x="0px" y="0px"
	 viewBox="0 0 384 384" style="enable-background:new 0 0 384 384;" xml:space="preserve">
<g>
	<g>
		<path d="M297.167,80.808c-5.68-3.824-11.432-6.912-17.168-9.392V16c0-8.832-7.168-16-16-16h-144c-8.832,0-16,7.168-16,16v55.416
			c-5.752,2.488-11.504,5.568-17.192,9.4c-40.2,27.128-50.856,81.944-23.744,122.216c7.424,10.992,20.864,22.52,40.936,35.136V368
			c0,5.416,2.736,10.464,7.28,13.416c4.544,2.952,10.264,3.4,15.216,1.208l65.504-29.12l65.504,29.112
			c2.072,0.928,4.288,1.384,6.496,1.384c3.048,0,6.08-0.872,8.72-2.584c4.544-2.952,7.28-8,7.28-13.416V238.168
			c20.048-12.592,33.512-24.136,40.936-35.128c0-0.008,0.008-0.016,0.016-0.024C348.047,162.76,337.391,107.944,297.167,80.808z
			 M135.991,32h0.008h112v32.448c-2.976,0.008-5.936,0.256-8.872,0.624c-0.792,0.104-1.584,0.248-2.376,0.376
			c-2.264,0.36-4.504,0.832-6.736,1.408c-0.8,0.208-1.6,0.4-2.4,0.632c-5.808,1.712-11.496,4.144-17.04,7.304
			c-0.768,0.44-1.528,0.92-2.296,1.392c-2.064,1.256-4.112,2.616-6.136,4.08c-0.768,0.552-1.536,1.096-2.304,1.68
			c-2.656,2.04-5.28,4.184-7.84,6.568c-2.56-2.376-5.176-4.528-7.824-6.56c-0.776-0.6-1.568-1.144-2.352-1.712
			c-1.992-1.432-4-2.776-6.032-4.016c-0.8-0.488-1.592-0.992-2.4-1.448c-2.752-1.56-5.528-3.008-8.344-4.216
			c-0.072-0.032-0.152-0.056-0.232-0.088c-2.744-1.168-5.528-2.12-8.328-2.944c-0.872-0.256-1.752-0.472-2.64-0.696
			c-2.12-0.544-4.256-0.992-6.4-1.344c-0.888-0.144-1.768-0.304-2.656-0.416c-2.912-0.368-5.848-0.608-8.8-0.616V32z M191.999,320
			c-2.216,0-4.432,0.464-6.504,1.376l-49.496,22v-87.28c0.368,0.192,0.736,0.368,1.104,0.552c0.56,0.28,1.112,0.56,1.672,0.84
			c1.408,0.704,2.8,1.4,4.184,2.08c0.552,0.272,1.104,0.544,1.648,0.808c1.752,0.856,3.472,1.688,5.168,2.496
			c0.088,0.04,0.176,0.088,0.264,0.128c1.808,0.856,3.56,1.688,5.288,2.488c0.512,0.24,1,0.464,1.504,0.696
			c1.192,0.552,2.368,1.088,3.512,1.616c0.576,0.264,1.136,0.52,1.704,0.776c1.088,0.496,2.144,0.968,3.184,1.432
			c0.472,0.208,0.96,0.432,1.416,0.632c1.368,0.608,2.68,1.184,3.928,1.728c0.568,0.248,1.08,0.472,1.624,0.704
			c0.728,0.312,1.44,0.624,2.112,0.912c0.544,0.232,1.056,0.456,1.568,0.672c0.656,0.28,1.272,0.544,1.872,0.792
			c0.448,0.184,0.896,0.376,1.304,0.552c0.536,0.224,1.008,0.416,1.488,0.616c0.856,0.352,1.608,0.664,2.28,0.944
			c0.192,0.08,0.392,0.16,0.568,0.232c0.368,0.152,0.68,0.28,0.976,0.4s0.528,0.216,0.752,0.304c0.192,0.08,0.328,0.136,0.464,0.184
			c0.256,0.104,0.44,0.176,0.52,0.208c3.784,1.496,7.976,1.496,11.76,0c0.08-0.032,0.264-0.104,0.52-0.208
			c0.128-0.048,0.248-0.104,0.432-0.176c0.256-0.104,0.552-0.224,0.912-0.368c0.232-0.096,0.456-0.184,0.72-0.296
			c0.32-0.128,0.68-0.28,1.048-0.432c0.424-0.176,0.848-0.344,1.344-0.552c0.648-0.272,1.344-0.56,2.112-0.88
			c0.384-0.16,0.8-0.336,1.216-0.512c0.648-0.272,1.32-0.56,2.04-0.864c0.448-0.192,0.888-0.376,1.36-0.584
			c0.824-0.352,1.688-0.728,2.584-1.112c0.392-0.168,0.76-0.328,1.16-0.504c1.336-0.584,2.736-1.2,4.2-1.848
			c0.24-0.104,0.496-0.224,0.736-0.328c1.296-0.576,2.632-1.176,4.008-1.8c0.344-0.16,0.696-0.312,1.048-0.48
			c1.464-0.664,2.968-1.36,4.512-2.072c0.2-0.088,0.384-0.176,0.584-0.272c3.624-1.688,7.44-3.496,11.384-5.424
			c0.232-0.112,0.456-0.224,0.688-0.336c1.792-0.88,3.616-1.784,5.456-2.712c0.2-0.104,0.4-0.2,0.6-0.304
			c0.488-0.248,0.976-0.488,1.464-0.736v87.284l-49.496-21.996C196.431,320.464,194.215,320,191.999,320z M294.415,185.128
			c-3.832,5.68-13.64,15.544-38.496,30.264c-24.472,14.312-52.096,26.368-63.928,31.32c-11.816-4.944-39.4-16.984-63.92-31.32
			h-0.008c-24.872-14.744-34.664-24.592-38.48-30.24c-17.256-25.632-10.48-60.536,15.096-77.792
			c6.64-4.464,13.184-7.576,19.536-9.28c2.248-0.616,4.48-1,6.696-1.264c0.656-0.08,1.312-0.088,1.968-0.136
			c1.584-0.112,3.16-0.152,4.728-0.08c0.728,0.032,1.456,0.08,2.184,0.152c1.568,0.152,3.12,0.408,4.672,0.744
			c0.632,0.136,1.272,0.24,1.904,0.408c4.296,1.136,8.536,2.968,12.704,5.504c0.648,0.392,1.288,0.856,1.928,1.28
			c1.448,0.96,2.888,1.984,4.32,3.112c0.72,0.568,1.44,1.16,2.152,1.768c1.416,1.208,2.824,2.52,4.216,3.896
			c0.632,0.624,1.272,1.216,1.904,1.872c1.992,2.08,3.976,4.288,5.936,6.72c3.048,3.752,7.632,5.944,12.472,5.944
			c4.84,0,9.424-2.192,12.456-5.96c10.136-12.576,20.792-20.408,31.856-23.704c0.632-0.184,1.256-0.488,1.888-0.64
			c0.536-0.136,1.088-0.144,1.624-0.256c6.544-1.352,13.224-1.208,20.04,0.664c6.264,1.672,12.808,4.792,19.424,9.24
			C304.871,124.608,311.655,159.496,294.415,185.128z"/>
	</g>
</g>
<g>
	<g>
		<path d="M135.999,112c-22.056,0-40,17.944-40,40c0,8.832,7.168,16,16,16c8.832,0,16-7.168,16-16c0-4.408,3.592-8,8-8
			c8.832,0,16-7.168,16-16C151.999,119.168,144.831,112,135.999,112z"/>
	</g>
</g>
<g>
</g>
<g>
</g>
<g>
</g>
<g>
</g>
<g>
</g>
<g>
</g>
<g>
</g>
<g>
</g>
<g>
</g>
<g>
</g>
<g>
</g>
<g>
</g>
<g>
</g>
<g>
</g>
<g>
</g>
</svg>
